<?xml version="1.0" encoding="utf-8"?>
<!-- Generator: Adobe Illustrator 19.1.0, SVG Export Plug-In . SVG Version: 6.00 Build 0)  -->
<svg version="1.1" xmlns="http://www.w3.org/2000/svg" xmlns:xlink="http://www.w3.org/1999/xlink" x="0px" y="0px"
	 viewBox="293 228.4 1198.2 336.6" style="enable-background:new 293 228.4 1198.2 336.6;" xml:space="preserve">
<style type="text/css">
	.st0{fill:#FFFFFF;}
</style>
<g>
	<g>
		<path class="st0" d="M420.7,330.5c0.2,3.5,3.1,6.2,6.5,6.2c3.4,0,6.3-2.7,6.5-6.2l3.2-56.6c0.2-2.7-0.8-5.5-2.8-7.6
			c-1.9-1.9-4.4-2.9-6.9-2.9s-5,1-6.9,2.9c-2.1,2.1-3,4.9-2.8,7.6L420.7,330.5z"/>
		<path class="st0" d="M456.1,360.7c-3.1-1.8-7.1-0.7-8.9,2.4l0,0c-4,6.9-11.5,11.6-20.1,11.6S411,370,407,363.1l0,0
			c-1.8-3.1-5.8-4.2-8.9-2.4c-3.1,1.8-4.2,5.8-2.4,8.9l0,0c6.2,10.8,17.9,18.1,31.3,18.1s25.1-7.3,31.3-18.1l0,0
			C460.3,366.5,459.3,362.5,456.1,360.7"/>
		<path class="st0" d="M400.4,336c1.1,3.3,4.6,5.2,7.9,4.3c3.3-0.9,5.4-4.2,4.7-7.6l-10.3-49.6c-0.5-2.5-2.1-4.9-4.5-6.3
			c-2.3-1.3-4.8-1.6-7.1-0.9c-2.3,0.6-4.4,2.1-5.7,4.4c-1.4,2.4-1.6,5.2-0.8,7.7L400.4,336z"/>
		<path class="st0" d="M383.3,347.4c1.9,2.9,5.7,3.8,8.7,2.1s4.1-5.5,2.5-8.6l-20-39.7c-1.1-2.2-3.2-4-5.8-4.7
			c-2.4-0.6-4.9-0.3-6.9,0.9c-2,1.2-3.6,3.1-4.2,5.5c-0.7,2.6-0.2,5.3,1.2,7.3L383.3,347.4z"/>
		<path class="st0" d="M446.1,340.3c3.3,0.9,6.8-1,7.9-4.3l15.9-48.1c0.8-2.5,0.6-5.3-0.8-7.7c-1.3-2.2-3.4-3.8-5.7-4.4
			s-4.9-0.4-7.1,0.9c-2.4,1.4-4,3.7-4.5,6.3l-10.3,49.6C440.7,336,442.8,339.4,446.1,340.3"/>
		<path class="st0" d="M462.4,349.5c3,1.7,6.8,0.8,8.7-2.1l24.4-37.2c1.4-2.1,1.9-4.7,1.2-7.3c-0.6-2.4-2.2-4.3-4.2-5.5
			s-4.5-1.6-6.9-0.9c-2.6,0.7-4.6,2.5-5.8,4.7l-20,39.7C458.3,344,459.4,347.7,462.4,349.5"/>
		<path class="st0" d="M514.3,503l-34.8-46.2c-6.3-8.3-9.9-18.6-9.9-29.6c0-10.9,3.6-21.3,9.9-29.6l34.8-46.2
			c3.6-6.2,1.5-14.2-4.8-17.8c-6.2-3.6-14.2-1.5-17.8,4.8L470,376.1c-9.1,15.8-25.7,24.7-42.8,24.6c-17.1,0.1-33.7-8.8-42.8-24.6
			l-21.7-37.7c-3.6-6.2-11.6-8.4-17.8-4.8c-6.2,3.6-8.4,11.6-4.8,17.8l34.8,46.2c6.3,8.3,9.9,18.6,9.9,29.6
			c0,10.9-3.6,21.3-9.9,29.6L340.1,503c-3.6,6.2-1.5,14.2,4.8,17.8c6.2,3.6,14.2,1.5,17.8-4.8l21.7-37.6
			c9.1-15.8,25.8-24.7,42.8-24.6c17.1-0.1,33.7,8.8,42.8,24.6l21.7,37.7c3.6,6.2,11.6,8.4,17.8,4.8
			C515.7,517.2,517.9,509.2,514.3,503"/>
	</g>
	<g>
		<path class="st0" d="M1440.9,408.2c1.3,0,2.5-0.6,2.5-2.5c0-1.8-1-2.5-2.5-2.5h-4.7v4.9h4.7V408.2z M1446.5,416.6h-3.5l-2.9-5.6
			h-3.9v5.6h-3v-16h7.7c3.4,0,5.5,2.1,5.5,5.2c0,2.3-1.3,4.2-3.3,4.9L1446.5,416.6z M1439.1,397c-6.4,0-11.7,5.3-11.7,11.9
			s5.2,11.9,11.7,11.9s11.7-5.3,11.7-11.9C1450.8,402.3,1445.5,397,1439.1,397 M1439.1,423.4c-8.1,0-14.6-6.5-14.6-14.6
			c0-8,6.5-14.6,14.6-14.6s14.6,6.5,14.6,14.6S1447.1,423.4,1439.1,423.4"/>
		<g>
			<path class="st0" d="M1290,432.5c-10.6-1.7-17-3.2-17-7.7c0-3.2,4.2-6.8,14.3-6.8c6,0,10.2,1.7,12.5,4.2c1.6,1.7,4.2,2.3,6.5,1.7
				l12.8-3.5c2-0.5,3-2.8,2-4.6c-5.9-10.8-18.3-17.4-33.8-17.4c-24.8,0-36.6,14-36.6,27.5c0,19.1,20.5,23.3,35.8,25.6
				c15,2.3,18,4.3,18,9.1c0,5-6.7,7.7-15.5,7.7c-5.3,0-12.1-1.8-16.1-6.4c-1.7-2-4.4-3-7-2.3l-12.7,3.4c-1.9,0.5-3,2.6-2.1,4.5
				c5.9,13,20,20.8,37.9,20.8c22,0,37.6-12,37.6-29C1326.6,440.6,1311.3,436,1290,432.5"/>
			<path class="st0" d="M1091.6,418.6h-45.9v-27.5h56.9c2,0,3.7-1.6,3.7-3.7v-13c0-2-1.7-3.7-3.7-3.7h-75.2c-2,0-3.7,1.7-3.7,3.7
				v108.1c0,2,1.7,3.7,3.7,3.7h14.6c2,0,3.7-1.7,3.7-3.7v-43.4h45.9c2,0,3.7-1.6,3.7-3.7v-13.1
				C1095.3,420.2,1093.6,418.6,1091.6,418.6"/>
			<path class="st0" d="M1139.2,374.4c0-2-1.7-3.7-3.7-3.7h-14.6c-2,0-3.7,1.6-3.7,3.7v108.1c0,2,1.6,3.7,3.7,3.7h14.6
				c2,0,3.7-1.6,3.7-3.7V374.4z"/>
			<path class="st0" d="M1194.3,467.7c-12.1,0-22-10.5-22-24.1c0-14,9.8-24.6,22-24.6c12.1,0,22,11,22,24.6
				C1216.2,456.9,1206.4,467.7,1194.3,467.7 M1234.5,400.5h-13.6c-2,0-3.7,1.6-3.7,3.7v5.5c-6.7-7-15.8-11-26.3-11
				c-22.3,0-40.8,19.3-40.8,44.8c0,25.3,18.5,44.6,40.8,44.6c10.5,0,19.6-4,26.3-11v5.5c0,2,1.6,3.7,3.7,3.7h13.6
				c2,0,3.7-1.6,3.7-3.7v-78.3C1238.2,402.1,1236.5,400.5,1234.5,400.5"/>
			<path class="st0" d="M1386.2,433.9l26.8-28c1.9-2,0.5-5.4-2.3-5.4h-19.8c-1.9,0-3.8,0.8-5,2.2l-26.1,28.9v-57.2
				c0-2.1-1.7-3.7-3.7-3.7h-14.5c-2.1,0-3.7,1.7-3.7,3.7v108.1c0,2,1.6,3.7,3.7,3.7h14.6c2,0,3.7-1.6,3.7-3.7v-20.9l11-11.5
				l19.3,32.8c1.2,2.1,3.4,3.3,5.8,3.3h17.9c2.7,0,4.3-3,2.8-5.2L1386.2,433.9z"/>
		</g>
		<g>
			<path class="st0" d="M642.1,374.4c0-2-1.7-3.7-3.7-3.7h-14.6c-2,0-3.7,1.6-3.7,3.7l-0.1,43.8h-49.2l0.1-43.8c0-2-1.6-3.7-3.7-3.7
				h-14.8c-2,0-3.7,1.6-3.7,3.7v108.1c0,2,1.7,3.7,3.7,3.7h14.8c2,0,3.7-1.7,3.7-3.7l-0.1-43.8H620l0.1,43.8c0,2,1.7,3.7,3.7,3.7
				h14.6c2,0,3.7-1.6,3.7-3.7V374.4z"/>
			<path class="st0" d="M785.4,467.7c-12.1,0-22-10.5-22-24.1c0-14,9.8-24.6,22-24.6c12.2,0,22,11,22,24.6
				C807.3,456.9,797.5,467.7,785.4,467.7 M829.3,374.4c0-2-1.7-3.7-3.7-3.7H811c-2,0-3.7,1.6-3.7,3.7v34.3c-6.7-6.3-15.3-10-25.3-10
				c-22.3,0-40.8,19.3-40.8,44.8c0,25.3,18.5,44.6,40.8,44.6c10.5,0,19.5-4,26.3-11v5.5c0,2,1.6,3.7,3.7,3.7h13.6
				c2,0,3.7-1.6,3.7-3.7V374.4z"/>
			<path class="st0" d="M888.2,398.4c-9.1-0.5-18,2.8-24.2,10.5v-4.8c0-2-1.6-3.7-3.7-3.7h-13.6c-2,0-3.7,1.7-3.7,3.7v78.3
				c0,2,1.6,3.7,3.7,3.7h14.6c2,0,3.7-1.7,3.7-3.7V444c0-6.8,0.8-13.8,5.5-18.6c4.2-4.5,10.2-5.9,17.2-5.6c2.1,0.1,3.9-1.6,3.9-3.7
				v-14C891.6,400.2,890.1,398.5,888.2,398.4"/>
			<path class="st0" d="M936.9,468c-11.6,0-21.1-10-21.1-24.5c0-14.8,9.5-25.1,21.1-25.1s21.1,10.3,21.1,25.1
				C958,458,948.5,468,936.9,468 M936.9,398.3c-23.8,0-43.1,19.5-43.1,45.1s19.3,44.8,43.1,44.8s43.3-19.1,43.3-44.8
				C980.1,417.8,960.7,398.3,936.9,398.3"/>
			<path class="st0" d="M736.6,400.5H723c-2,0-3.8,1.2-4.5,3.1l-21,54.6l-21-54.6c-0.7-1.9-2.5-3.1-4.5-3.1h-13.6
				c-2.6,0-4.4,2.6-3.4,5l31.4,81.8l-2.6,6.9c-3.2,8.4-7.8,11.7-16.4,11.9c-2,0-3.7,1.6-3.7,3.7v12.6c0,2,1.6,3.6,3.6,3.7
				c16.1,0.5,27.7-3.2,35.9-24.3l36.9-96.3C741,403,739.2,400.5,736.6,400.5"/>
		</g>
	</g>
</g>
</svg>
