<svg xmlns="http://www.w3.org/2000/svg" width="20.273" height="15.449" viewBox="0 0 20.273 15.449">
  <defs>
    <style>
      .cls-4 {
        fill: #ffff;
      }
    </style>
  </defs>
  <g id="log_out" data-name="log out" transform="translate(-7.553 -8.437)">
    <path id="sign-out-alt-solid" class="cls-4" d="M19.992,72.387l-6.758,6.758a.967.967,0,0,1-1.649-.684V74.6H6.114a.963.963,0,0,1-.965-.965V69.772a.963.963,0,0,1,.965-.965h5.471V64.945a.968.968,0,0,1,1.649-.684l6.758,6.758A.974.974,0,0,1,19.992,72.387ZM7.723,78.943V77.334a.484.484,0,0,0-.483-.483H3.862a1.286,1.286,0,0,1-1.287-1.287V67.841a1.286,1.286,0,0,1,1.287-1.287H7.241a.484.484,0,0,0,.483-.483V64.462a.484.484,0,0,0-.483-.483H3.862A3.863,3.863,0,0,0,0,67.841v7.723a3.863,3.863,0,0,0,3.862,3.862H7.241A.484.484,0,0,0,7.723,78.943Z" transform="translate(7.553 -55.542)"/>
  </g>
</svg>
